<svg xmlns="http://www.w3.org/2000/svg" xmlns:xlink="http://www.w3.org/1999/xlink" viewBox="0 0 1248.73 284.11"><defs><style>.cls-1{fill:url(#linear-gradient);}.cls-2,.cls-3,.cls-5{fill:none;stroke-linejoin:round;stroke-width:9px;}.cls-2{stroke:#1d1d1b;}.cls-3{stroke:#000;}.cls-4{fill:#1d1d1b;}.cls-5{stroke:url(#linear-gradient-2);}</style><linearGradient id="linear-gradient" x1="1104.55" y1="283.79" x2="1104.55" y2="0.33" gradientUnits="userSpaceOnUse"><stop offset="0" stop-color="#00ff42"/><stop offset="1" stop-color="#00f4ff"/></linearGradient><linearGradient id="linear-gradient-2" x1="787.36" y1="257.71" x2="787.36" y2="69.08" xlink:href="#linear-gradient"/></defs><title>Asset 1</title><g id="Layer_2" data-name="Layer 2"><g id="Layer_1-2" data-name="Layer 1"><rect class="cls-1" x="962.82" y="0.33" width="283.46" height="283.46"/><path class="cls-2" d="M1057,116.24h94.31M1057,163.4h94.31M1057,69.08V257.71m94.31-188.63V257.71m97.45-47.16h-288"/><path class="cls-3" d="M94.31,116.24h94.31M94.31,163.4h94.31M94.32,69.08V257.71M188.63,69.08V257.71m94.32-47.16H0"/><g id="_Group_" data-name="&lt;Group&gt;"><polyline class="cls-3" points="419.41 72.96 419.43 72.96 511 72.96"/><polyline class="cls-3" points="419.41 118.75 419.43 118.75 511 118.75"/><polyline class="cls-3" points="419.41 164.54 419.43 164.54 511 164.54"/><polyline class="cls-3" points="419.43 27.18 419.43 72.96 419.43 118.75 419.43 164.54 419.43 210.32 419.43 256.11"/><polyline class="cls-3" points="511 27.18 511 72.96 511 118.75 511 164.54 511 210.32 511 256.11"/><polyline class="cls-3" points="606.94 210.32 511 210.32 419.43 210.32 323.48 210.32"/></g><rect class="cls-4" x="645.16" width="284.11" height="284.11"/><path class="cls-5" d="M740.06,116.24h94.31M740.06,163.4h94.31M740.06,69.08V257.71M834.37,69.08V257.71M931,210.55H643.73"/></g></g></svg>