<svg id="Layer_1" data-name="Layer 1" xmlns="http://www.w3.org/2000/svg" viewBox="0 0 128 128"><defs><style>.cls-1{fill:none;stroke:#000;stroke-linecap:square;stroke-miterlimit:2.61;stroke-width:3px;}</style></defs><title>Artboard 46</title><path class="cls-1" d="M119,9H9V119H119ZM64,70.86A10.29,10.29,0,0,1,54.3,64l-3.22-9.1a13.85,13.85,0,0,1-.8-4.62,13.65,13.65,0,0,1,1.84-6.86,13.64,13.64,0,0,1-1.84-6.86H64A13.73,13.73,0,0,1,76.92,54.9L73.7,64A10.29,10.29,0,0,1,64,70.86ZM36.56,91.44,38.39,86c1.49-4.47,11.52-8.23,25.61-8.23S88.12,81.48,89.61,86l1.83,5.49"/></svg>