<svg id="Layer_1" data-name="Layer 1" xmlns="http://www.w3.org/2000/svg" viewBox="0 0 128 128"><defs><style>.cls-1{fill:none;stroke:#000;stroke-linecap:round;stroke-linejoin:round;stroke-width:3px;}</style></defs><title>Artboard 14</title><path class="cls-1" d="M119,9H9V119H119ZM57.14,67.43a10.29,10.29,0,0,1,20.58,0V77.72M57.14,57.14V77.72M50.28,57.14V77.72m0-30.87a3.43,3.43,0,1,1-3.43,3.43A3.43,3.43,0,0,1,50.28,46.85Zm0-10.29H77.72A13.76,13.76,0,0,1,91.44,50.28V77.72A13.76,13.76,0,0,1,77.72,91.44H50.28A13.76,13.76,0,0,1,36.56,77.72V50.28A13.76,13.76,0,0,1,50.28,36.56Z"/></svg>