<svg id="Layer_1" data-name="Layer 1" xmlns="http://www.w3.org/2000/svg" viewBox="0 0 128 128"><defs><style>.cls-1{fill:none;stroke:#000;stroke-linecap:round;stroke-linejoin:round;stroke-width:3px;}</style></defs><title>Artboard 13</title><path class="cls-1" d="M119,9H9V119H119ZM84.58,53.71l-6.86,3.43,6.86,3.43m-6.86-3.43a6.86,6.86,0,1,0-13.72,0L43.42,50.28a20.58,20.58,0,0,0,7.5,15.89l-7.5,4.69c3.79,3.92,8.27,6.86,13.72,6.86A20.93,20.93,0,0,0,77.72,57.14ZM50.28,36.56H77.72A13.76,13.76,0,0,1,91.44,50.28V77.72A13.76,13.76,0,0,1,77.72,91.44H50.28A13.76,13.76,0,0,1,36.56,77.72V50.28A13.76,13.76,0,0,1,50.28,36.56Z"/></svg>