<svg id="Layer_1" data-name="Layer 1" xmlns="http://www.w3.org/2000/svg" viewBox="0 0 128 128"><defs><style>.cls-1{fill:none;stroke:#000;stroke-linecap:square;stroke-miterlimit:2.61;stroke-width:3px;}</style></defs><title>Artboard 3</title><path class="cls-1" d="M84.58,84.58V43.42m-24,6.86A3.44,3.44,0,0,1,64,53.71V81.15a3.43,3.43,0,0,1-6.86,0V53.71A3.44,3.44,0,0,1,60.57,50.28Zm24,30.87a3.43,3.43,0,0,1-6.86,0V53.71a3.43,3.43,0,1,1,6.86,0M70.86,84.58V43.42M43.42,77.72v3.43a3.43,3.43,0,1,0,6.86,0V77.72L43.42,50.28V46.85a3.43,3.43,0,1,1,6.86,0v3.43M91.44,91.44H36.56V36.56H91.44ZM119,9H9V119H119Z"/></svg>