<svg xmlns="http://www.w3.org/2000/svg" viewBox="0 0 58.11 58.11"><defs><style>.cls-1{fill:none;stroke:#000;stroke-linecap:round;stroke-linejoin:round;stroke-width:1.42px;}</style></defs><title>icon-12</title><g id="Layer_2" data-name="Layer 2"><g id="Layer_1-2" data-name="Layer 1"><path class="cls-1" d="M57.4.71H.71V57.4H57.4Zm-17.74,23-3.54,1.77,3.54,1.77m-3.54-1.77a3.54,3.54,0,1,0-7.07,0L18.45,22a10.61,10.61,0,0,0,3.87,8.19l-3.87,2.42c2,2,4.26,3.54,7.07,3.54A10.79,10.79,0,0,0,36.13,25.52ZM22,14.91H36.13A7.09,7.09,0,0,1,43.2,22V36.13a7.09,7.09,0,0,1-7.07,7.07H22a7.09,7.09,0,0,1-7.07-7.07V22A7.09,7.09,0,0,1,22,14.91Z"/></g></g></svg>