<svg id="Layer_1" data-name="Layer 1" xmlns="http://www.w3.org/2000/svg" viewBox="0 0 128 128"><defs><style>.cls-1{fill:none;stroke:#000;stroke-linecap:round;stroke-linejoin:round;stroke-width:3px;}</style></defs><title>Artboard 24</title><path class="cls-1" d="M119,9H9V119H119ZM46.85,77.72h34.3M64,81.15a3.43,3.43,0,1,1-3.43,3.43A3.43,3.43,0,0,1,64,81.15ZM46.85,43.42h34.3M53.71,36.56H74.29a6.88,6.88,0,0,1,6.86,6.86V84.58a6.88,6.88,0,0,1-6.86,6.86H53.71a6.88,6.88,0,0,1-6.86-6.86V43.42A6.88,6.88,0,0,1,53.71,36.56Z"/></svg>