<svg xmlns="http://www.w3.org/2000/svg" viewBox="0 0 58.11 58.11"><defs><style>.cls-1{fill:none;stroke:#000;stroke-linecap:round;stroke-linejoin:round;stroke-width:1.42px;}</style></defs><title>icon-9</title><g id="Layer_2" data-name="Layer 2"><g id="Layer_1-2" data-name="Layer 1"><path class="cls-1" d="M57.4.71H.71V57.4H57.4ZM20.22,36.13H37.89m-8.84,1.77a1.77,1.77,0,1,1-1.77,1.77A1.77,1.77,0,0,1,29.06,37.89ZM20.22,18.45H37.89M23.75,14.91H34.36a3.55,3.55,0,0,1,3.54,3.54V39.66a3.55,3.55,0,0,1-3.54,3.54H23.75a3.55,3.55,0,0,1-3.54-3.54V18.45A3.55,3.55,0,0,1,23.75,14.91Z"/></g></g></svg>