<svg xmlns="http://www.w3.org/2000/svg" viewBox="0 0 58.11 58.11"><defs><style>.cls-1{fill:none;stroke:#000;stroke-linecap:round;stroke-linejoin:round;stroke-width:1.42px;}</style></defs><title>icon-13</title><g id="Layer_2" data-name="Layer 2"><g id="Layer_1-2" data-name="Layer 1"><path class="cls-1" d="M57.4.71H.71V57.4H57.4ZM25.52,30.82a5.3,5.3,0,0,1,10.61,0v5.3M25.52,25.52V36.13M22,25.52V36.13m0-15.91A1.77,1.77,0,1,1,20.22,22,1.77,1.77,0,0,1,22,20.22Zm0-5.3H36.13A7.09,7.09,0,0,1,43.2,22V36.13a7.09,7.09,0,0,1-7.07,7.07H22a7.09,7.09,0,0,1-7.07-7.07V22A7.09,7.09,0,0,1,22,14.91Z"/></g></g></svg>