<svg xmlns="http://www.w3.org/2000/svg" viewBox="0 0 58.11 58.11"><defs><style>.cls-1{fill:none;stroke:#000;stroke-linecap:round;stroke-linejoin:round;stroke-width:1.42px;}</style></defs><title>icon-23</title><g id="Layer_2" data-name="Layer 2"><g id="Layer_1-2" data-name="Layer 1"><path class="cls-1" d="M57.4.71H.71V57.4H57.4ZM21.61,27.47,36.5,20m0,18L21.61,30.64m18,5.49a3.54,3.54,0,1,1-3.54,3.54A3.53,3.53,0,0,1,39.66,36.13Zm0-21.21a3.54,3.54,0,1,1-3.54,3.54A3.54,3.54,0,0,1,39.66,14.91ZM18.45,25.52a3.54,3.54,0,1,1-3.54,3.54A3.54,3.54,0,0,1,18.45,25.52Z"/></g></g></svg>