<svg id="Layer_1" data-name="Layer 1" xmlns="http://www.w3.org/2000/svg" viewBox="0 0 128 128"><defs><style>.cls-1{fill:none;stroke:#000;stroke-linecap:round;stroke-linejoin:round;stroke-width:3px;}</style></defs><title>Artboard 36</title><path class="cls-1" d="M119,9H9V119H119ZM49.56,60.93,78.44,46.49m0,35L49.56,67.07m35,10.65a6.86,6.86,0,1,1-6.86,6.86A6.86,6.86,0,0,1,84.58,77.72Zm0-41.16a6.86,6.86,0,1,1-6.86,6.86A6.86,6.86,0,0,1,84.58,36.56ZM43.42,57.14A6.86,6.86,0,1,1,36.56,64,6.86,6.86,0,0,1,43.42,57.14Z"/></svg>