<svg id="Layer_1" data-name="Layer 1" xmlns="http://www.w3.org/2000/svg" viewBox="0 0 128 128"><defs><style>.cls-1{fill:none;stroke:#000;stroke-linecap:round;stroke-linejoin:round;stroke-width:3px;}</style></defs><title>Artboard 12</title><path class="cls-1" d="M119,9H9V119H119ZM81.15,43.42a3.43,3.43,0,1,1-3.43,3.43A3.43,3.43,0,0,1,81.15,43.42ZM64,50.28A13.72,13.72,0,1,1,50.28,64,13.72,13.72,0,0,1,64,50.28ZM50.28,36.56H77.72A13.76,13.76,0,0,1,91.44,50.28V77.72A13.76,13.76,0,0,1,77.72,91.44H50.28A13.76,13.76,0,0,1,36.56,77.72V50.28A13.76,13.76,0,0,1,50.28,36.56Z"/></svg>